<svg version="1.1" viewBox="0 0 512 512" xmlns="http://www.w3.org/2000/svg">
<path d="M246.43,489.45S8.09,345.68,36.02,67.42c0,0,39.72-23.95,104.1-39.48l17.63,44.88c-46.4,10.62-75.24,25.69-75.24,25.69,4.53,231.85,164.53,330.87,164.83,328.75C436.02,270.28,406.74,98.51,406.74,98.51c-80.43-38.42-157.58-40.35-216.44-31.78l-19.08-45.19c75.35-12.85,175.52-10.87,282.91,43.76,0,0,36.53,261.13-207.7,424.15Z" fill="#a6adba"/>
<path d="M245.83,91.88v43.92c-.06-.01-.12-.01-.18-.01-47.28-1.81-84.95,14.04-84.95,14.04,0,9.06,10.41,66.11,27.73,100.67,13.65,27.22,56.48,83.18,56.48,83.18,0,0,.18-.24,.53-.7v55.94C99.55,272.4,113.6,117.23,113.6,117.23c47.08-19.33,92.61-25.56,132.23-25.35Z" fill="#a6adba"/>
<path d="m378.06 117.23c-2.72 180.83-132.62 271.69-132.62 271.69v-55.94c4.55-6 37.19-49.26 56.54-80.76 20.83-33.91 28.98-102.39 28.98-102.39s-37.94-12.2-85.13-14.03v-43.92c77.37 0.4 132.23 25.35 132.23 25.35z" fill="#a6adba"/>
<path d="m193.08 170.21s1.58 57.06 52.75 110.04c0 0 41.66-41.89 52.53-107.77 0 0-42.11-15.17-103.92-2.26" fill="#a6adba"/>
</svg>